:SAMPLES-PER-SECOND 30
:FULLY-SPECIFIED
:DEGREES
466
root  70.2095 38.8846 3.18585 19.4342 -22.6345 3.23881
RightUpLeg  -36.7884 -10.838 -9.01827
RightLeg  -2.74569 -13.7251 4.8448
RightFoot  18.3015 0.399056 -1.02398
RightToes  0.00048216 0.542163 -0.142577
Spine  56.6867 -0.958058 0.343647
Spine1  8.81533 0.585857 -4.46106
HEad  -44.1454 -11.7389 12.1223
LeftShoulder1  9.32904 -20.0582 -33.4869
LeftArm  -28.3723 -15.2955 -27.4724
LeftForeArm  6.79524 -61.9164 -21.1317
LeftHand  -0.25398 0.0180481 5.50724
RightShoulder  4.70436 12.7797 22.6378
RightArm  -25.762 28.348 22.1836
RightForeArm  -8.60949 65.7021 27.4566
RightHand  -0.0913502 -7.45164 2.0557
LeftUpLeg  -50.2534 49.1184 -28.9553
LeftLeg  16.2396 6.90632 -3.02202
LeftFoot  1.79354 -0.780309 6.67267
LeftToes  1.06244e-005 4.65856e-005 -8.18505e-006
467
root  69.9514 39.0893 3.33481 18.0544 -25.651 3.55544
RightUpLeg  -35.0011 -10.4497 -8.63181
RightLeg  -3.3951 -17.6627 5.31883
RightFoot  15.7881 0.514739 -1.68952
RightToes  0.00048216 0.542163 -0.142577
Spine  54.3707 -0.583185 -0.157451
Spine1  8.29843 0.478226 -3.95555
HEad  -44.7417 -12.2113 13.0165
LeftShoulder1  9.54532 -19.3614 -35.6165
LeftArm  -27.1943 -9.01742 -26.8012
LeftForeArm  13.3931 -66.9978 -26.6655
LeftHand  -0.25398 0.0180481 5.50724
RightShoulder  5.02737 12.6201 25.0503
RightArm  -22.8637 23.0517 23.5619
RightForeArm  -2.74374 69.2544 33.1496
RightHand  -0.109484 -8.17804 1.97887
LeftUpLeg  -38.1008 41.852 -15.0376
LeftLeg  13.5176 20.5176 -4.23592
LeftFoot  2.40706 -0.646093 5.23555
LeftToes  1.06244e-005 4.65856e-005 -8.18505e-006
468
root  69.6123 39.2841 3.52561 16.6999 -29.0036 3.90872
RightUpLeg  -33.4925 -10.6244 -8.20088
RightLeg  -3.21232 -24.5191 6.259
RightFoot  12.9077 0.838448 -3.49358
RightToes  0.00048216 0.542163 -0.142577
Spine  51.9951 -0.163335 -0.772006
Spine1  7.66459 0.462772 -3.58077
HEad  -45.0836 -12.7529 13.6352
LeftShoulder1  9.83598 -18.9447 -37.6364
LeftArm  -26.5816 -2.77174 -25.4153
LeftForeArm  22.1783 -71.52 -34.4291
LeftHand  -0.25398 0.0180481 5.50724
RightShoulder  5.34308 12.4731 27.4037
RightArm  -20.1427 17.7189 24.3562
RightForeArm  3.75227 72.1444 39.8932
RightHand  -0.0979687 -8.37842 1.38046
LeftUpLeg  -28.7718 31.4584 -4.01101
LeftLeg  10.0069 36.0512 -6.46455
LeftFoot  3.41454 -0.516696 3.83385
LeftToes  1.06244e-005 4.65856e-005 -8.18505e-006
469
root  69.1581 39.4749 3.73967 15.0268 -32.275 4.35814
RightUpLeg  -31.6109 -11.2793 -7.855
RightLeg  -2.75871 -32.0247 7.42934
RightFoot  9.99318 1.03848 -5.13172
RightToes  0.00048216 0.542163 -0.142577
Spine  49.8897 0.0916093 -1.44126
Spine1  6.87807 0.245711 -3.10916
HEad  -44.794 -12.986 13.8829
LeftShoulder1  9.90525 -18.4186 -38.9564
LeftArm  -26.2114 3.22168 -23.9607
LeftForeArm  33.4247 -75.13 -45.1044
LeftHand  -0.25398 0.0180481 5.50724
RightShoulder  5.57587 12.3372 29.2098
RightArm  -17.5 12.6092 25.4861
RightForeArm  11.2546 74.2385 46.8268
RightHand  -0.147788 -9.11873 2.35144
LeftUpLeg  -22.2034 21.0619 2.84804
LeftLeg  5.03185 50.3035 -9.74998
LeftFoot  4.62555 -0.351163 2.30267
LeftToes  1.06244e-005 4.65856e-005 -8.18505e-006
470
root  68.5699 39.6539 3.97583 13.3291 -35.3381 4.55892
RightUpLeg  -29.1965 -12.0224 -7.40681
RightLeg  -2.45692 -37.8699 8.79547
RightFoot  7.19383 0.925968 -5.34712
RightToes  0.00048216 0.542163 -0.142577
Spine  47.9597 0.187916 -1.8736
Spine1  5.96221 -0.0737999 -2.33683
HEad  -43.8623 -12.8063 13.5172
LeftShoulder1  9.82857 -17.7975 -39.8739
LeftArm  -25.9352 8.85136 -22.6904
LeftForeArm  47.0486 -77.6211 -58.8309
LeftHand  -0.25398 0.0180481 5.50724
RightShoulder  5.62987 12.0244 30.2881
RightArm  -15.0542 7.81034 27.2424
RightForeArm  19.0635 75.7176 53.6527
RightHand  -0.243353 -10.3753 3.79416
LeftUpLeg  -17.443 14.6367 5.94428
LeftLeg  -0.761693 59.296 -13.2165
LeftFoot  5.85828 -0.215272 1.18438
LeftToes  1.06244e-005 4.65856e-005 -8.18505e-006
471
root  67.8548 39.7917 4.24885 12.1096 -38.4466 4.28083
RightUpLeg  -26.8447 -12.3686 -6.61522
RightLeg  -2.1303 -40.5403 9.9924
RightFoot  4.91528 0.703044 -4.68313
RightToes  0.00048216 0.542163 -0.142577
Spine  45.5869 0.455702 -1.84422
Spine1  5.32533 -0.0126937 -1.25798
HEad  -42.7497 -12.8345 12.4806
LeftShoulder1  9.97865 -17.5929 -40.9708
LeftArm  -25.7606 13.8753 -21.6075
LeftForeArm  60.9502 -78.8862 -73.2315
LeftHand  -0.25398 0.0180481 5.50724
RightShoulder  5.45232 11.2968 30.8842
RightArm  -13.1595 3.09546 28.9033
RightForeArm  26.956 76.8783 61.5183
RightHand  -0.244851 -11.0141 3.24571
LeftUpLeg  -13.7717 13.3491 7.02557
LeftLeg  -4.36686 62.566 -14.4856
LeftFoot  7.21685 -0.10208 0.363777
LeftToes  1.06244e-005 4.65856e-005 -8.18505e-006
472
root  67.0188 39.8738 4.55334 11.1195 -41.7411 3.72355
RightUpLeg  -24.865 -12.0962 -5.49298
RightLeg  -1.15495 -39.8331 10.2666
RightFoot  3.34454 0.620502 -4.63974
RightToes  0.00048216 0.542163 -0.142577
Spine  42.8498 0.500207 -1.23351
Spine1  5.16946 0.292516 -1.11487
HEad  -41.4037 -12.792 11.5168
LeftShoulder1  9.94768 -17.5634 -40.8947
LeftArm  -25.6927 18.5429 -21.3633
LeftForeArm  74.3483 -79.3209 -86.9344
LeftHand  -0.25398 0.0180481 5.50724
RightShoulder  5.33553 10.5918 31.9075
RightArm  -11.7672 -1.42156 29.8684
RightForeArm  35.0392 77.7098 70.4628
RightHand  -0.14361 -10.799 1.35917
LeftUpLeg  -10.3835 13.3621 8.37581
LeftLeg  -5.15233 65.1762 -14.0829
LeftFoot  7.98646 0.122764 -1.02255
LeftToes  1.06244e-005 4.65856e-005 -8.18505e-006
473
root  66.0755 39.9195 4.85835 9.73351 -44.9717 3.25776
RightUpLeg  -22.8534 -11.496 -4.31223
RightLeg  0.587573 -37.0602 9.57952
RightFoot  2.00309 0.655369 -5.48273
RightToes  0.00048216 0.542163 -0.142577
Spine  40.1642 0.27222 -0.468035
Spine1  5.42459 0.365059 -1.31857
HEad  -39.5127 -12.3224 10.4696
LeftShoulder1  9.77458 -17.3513 -40.5707
LeftArm  -25.3312 22.7142 -20.7602
LeftForeArm  87.0743 -79.186 -99.6719
LeftHand  -0.25398 0.0180481 5.50724
RightShoulder  5.39497 10.3221 33.0745
RightArm  -10.5522 -5.49319 30.2052
RightForeArm  42.104 78.1363 78.1123
RightHand  -0.121937 -10.9569 0.843931
LeftUpLeg  -6.95055 14.3102 10.0569
LeftLeg  -2.31972 66.9679 -11.4797
LeftFoot  6.31442 0.29199 -2.13404
LeftToes  1.06244e-005 4.65856e-005 -8.18505e-006
474
root  65.0656 39.9652 5.13708 7.80917 -48.0509 3.0263
RightUpLeg  -20.3478 -10.9225 -3.29232
RightLeg  2.48313 -33.8624 8.63617
RightFoot  0.442122 0.642036 -6.17633
RightToes  0.00048216 0.542163 -0.142577
Spine  37.6715 0.0897995 -0.137617
Spine1  6.10341 0.0593506 -0.684521
HEad  -37.353 -11.1394 8.87607
LeftShoulder1  9.68693 -16.8026 -41.3568
LeftArm  -24.59 25.7852 -18.9978
LeftForeArm  97.9227 -78.628 -110.579
LeftHand  -0.25398 0.0180481 5.50724
RightShoulder  5.39769 10.2524 33.2944
RightArm  -9.35159 -8.46386 30.791
RightForeArm  45.648 78.2618 81.6951
RightHand  -0.193239 -11.9469 1.81449
LeftUpLeg  -4.00162 15.4866 11.608
LeftLeg  4.2283 64.9918 -5.76832
LeftFoot  1.75508 0.109883 -0.928649
LeftToes  1.06244e-005 4.65856e-005 -8.18505e-006
475
root  64.0557 40.0314 5.38826 5.63296 -51.2643 3.08264
RightUpLeg  -17.5269 -10.4538 -2.52493
RightLeg  4.10546 -30.8499 7.78867
RightFoot  -1.21821 0.524705 -6.00078
RightToes  0.00048216 0.542163 -0.142577
Spine  35.4241 -0.0132538 0.103829
Spine1  6.82102 -0.0747298 -0.398025
HEad  -35.4101 -9.83871 7.55285
LeftShoulder1  9.5553 -16.3803 -41.6896
LeftArm  -23.8462 27.8082 -17.8317
LeftForeArm  105.468 -77.9452 -118.152
LeftHand  -0.25398 0.0180481 5.50724
RightShoulder  5.26713 9.8364 33.5389
RightArm  -8.25322 -10.0226 31.2189
RightForeArm  45.6193 78.2574 82.0001
RightHand  -0.244178 -12.7431 2.31665
LeftUpLeg  -2.5731 18.8188 11.9125
LeftLeg  11.3789 53.4929 0.895868
LeftFoot  -3.53464 -0.117225 2.01292
LeftToes  1.06244e-005 4.65856e-005 -8.18505e-006
476
root  63.0844 40.0901 5.6235 3.33911 -54.6185 3.4787
RightUpLeg  -14.8445 -10.0706 -2.00105
RightLeg  5.71662 -27.8482 6.84584
RightFoot  -2.89012 0.360198 -5.12636
RightToes  0.00048216 0.542163 -0.142577
Spine  33.3506 -0.170314 0.20215
Spine1  7.2934 -0.234691 -0.2914
HEad  -33.4661 -8.48462 6.33252
LeftShoulder1  9.39832 -15.9131 -42.0174
LeftArm  -23.3659 28.974 -17.0041
LeftForeArm  109.458 -77.4375 -122.274
LeftHand  -0.25398 0.0180481 5.50724
RightShoulder  5.30837 9.751 34.0979
RightArm  -7.26204 -10.5293 30.8911
RightForeArm  42.5556 78.1557 79.8106
RightHand  -0.206193 -12.6614 1.7571
LeftUpLeg  -3.04767 27.1011 10.2362
LeftLeg  15.5101 29.5746 4.54149
LeftFoot  -7.17473 -0.0775487 3.09739
LeftToes  1.06244e-005 4.65856e-005 -8.18505e-006
